# xmcd
#
# Track frame offsets:
#	150
#	12720
#	35500
#
# Disc length: 809 seconds
# Revision: 1
# Processed by: cddbd v1.5.2PL0 Copyright (c) Steve Scherf et al.
# Submitted via: dBpowerAMP V12.0
#
DISCID=20032703
DTITLE=Ilse DeLange - I'd Be Yours (limited edition)
DYEAR=1998
DGENRE=Country
TTITLE0=I'd Be Yours (radio edit)
TTITLE1=All The Answers (live)
TTITLE2=I'd Be Yours (live)
EXTD=
EXTT0=
EXTT1=
EXTT2=
PLAYORDER=
